PWHSGothic-Bold.ufo
<glyph name="hyphen" format="2">
  <advance width="360"/>
  <unicode hex="002D"/>
  <outline>
    <contour>
      <point x="57" y="257" type="line"/>
      <point x="303" y="257" type="line"/>
      <point x="303" y="335" type="line"/>
      <point x="57" y="335" type="line"/>
    </contour>
  </outline>
</glyph>
<glyph name="six" format="2">
  <advance width="640"/>
  <unicode hex="0036"/>
  <outline>
    <contour>
      <point x="82" y="700" type="line"/>
      <point x="82" y="0" type="line"/>
      <point x="558" y="0" type="line"/>
      <point x="558" y="700" type="line"/>
    </contour>
    <contour>
      <point x="509" y="650" type="line"/>
      <point x="509" y="50" type="line"/>
      <point x="132" y="50" type="line"/>
      <point x="132" y="650" type="line"/>
    </contour>
    <contour>
      <point x="507" y="11" type="line"/>
      <point x="546" y="39" type="line"/>
      <point x="134" y="689" type="line"/>
      <point x="94" y="661" type="line"/>
    </contour>
    <contour>
      <point x="134" y="11" type="line"/>
      <point x="546" y="661" type="line"/>
      <point x="507" y="689" type="line"/>
      <point x="94" y="39" type="line"/>
    </contour>
  </outline>
</glyph>
<glyph name="A" format="2">
  <advance width="680"/>
  <unicode hex="0041"/>
  <outline>
    <contour>
      <point x="514" y="301" type="line"/>
      <point x="172" y="301" type="line"/>
      <point x="172" y="147" type="line"/>
      <point x="514" y="147" type="line"/>
    </contour>
    <contour>
      <point x="230" y="0" type="line"/>
      <point x="365" y="509" type="line"/>
      <point x="324" y="509" type="line"/>
      <point x="453" y="0" type="line"/>
      <point x="655" y="0" type="line"/>
      <point x="439" y="700" type="line"/>
      <point x="256" y="700" type="line"/>
      <point x="25" y="0" type="line"/>
    </contour>
  </outline>
</glyph>
<glyph name="B" format="2">
  <advance width="675"/>
  <unicode hex="0042"/>
  <outline>
    <contour>
      <point x="85" y="700" type="line"/>
      <point x="85" y="0" type="line"/>
      <point x="245" y="0" type="line"/>
      <point x="245" y="700" type="line"/>
    </contour>
    <contour>
      <point x="426" y="0" type="line" smooth="yes"/>
      <point x="561.0" y="0.0"/>
      <point x="645" y="89"/>
      <point x="645" y="201" type="curve" smooth="yes"/>
      <point x="645" y="296"/>
      <point x="585" y="350"/>
      <point x="524" y="374" type="curve"/>
      <point x="524" y="356" type="line"/>
      <point x="580" y="374"/>
      <point x="630" y="428"/>
      <point x="630" y="511" type="curve" smooth="yes"/>
      <point x="630" y="621"/>
      <point x="550.0" y="700.0"/>
      <point x="426" y="700" type="curve" smooth="yes"/>
      <point x="124" y="700" type="line"/>
      <point x="124" y="614" type="line"/>
      <point x="356" y="614" type="line" smooth="yes"/>
      <point x="429.0" y="614.0"/>
      <point x="471" y="596"/>
      <point x="471" y="530" type="curve" smooth="yes"/>
      <point x="471" y="464"/>
      <point x="427.0" y="445.0"/>
      <point x="354" y="445" type="curve" smooth="yes"/>
      <point x="123" y="445" type="line"/>
      <point x="123" y="316" type="line"/>
      <point x="344" y="316" type="line" smooth="yes"/>
      <point x="415.0" y="316.0"/>
      <point x="481" y="292"/>
      <point x="481" y="215" type="curve" smooth="yes"/>
      <point x="481" y="140"/>
      <point x="460" y="122"/>
      <point x="385" y="122" type="curve" smooth="yes"/>
      <point x="124" y="122" type="line"/>
      <point x="124" y="0" type="line"/>
    </contour>
  </outline>
</glyph>
<glyph name="D" format="2">
  <advance width="750"/>
  <unicode hex="0044"/>
  <outline>
    <contour>
      <point x="123" y="86" type="line"/>
      <point x="123" y="0" type="line"/>
      <point x="381" y="0" type="line" smooth="yes"/>
      <point x="585.0" y="0.0"/>
      <point x="707" y="149"/>
      <point x="707" y="350" type="curve" smooth="yes"/>
      <point x="707" y="551"/>
      <point x="585.0" y="700.0"/>
      <point x="381" y="700" type="curve" smooth="yes"/>
      <point x="122" y="700" type="line"/>
      <point x="122" y="614" type="line"/>
      <point x="374" y="614" type="line" smooth="yes"/>
      <point x="525.0" y="614.0"/>
      <point x="610" y="512"/>
      <point x="610" y="350" type="curve" smooth="yes"/>
      <point x="610" y="188"/>
      <point x="525.0" y="86.0"/>
      <point x="374" y="86" type="curve" smooth="yes"/>
    </contour>
    <contour>
      <point x="85" y="0" type="line"/>
      <point x="180" y="0" type="line"/>
      <point x="180" y="700" type="line"/>
      <point x="85" y="700" type="line"/>
    </contour>
  </outline>
</glyph>
<glyph name="G" format="2">
  <advance width="773"/>
  <unicode hex="0047"/>
  <outline>
    <contour>
      <point x="385" y="712" type="curve" smooth="yes"/>
      <point x="196" y="712"/>
      <point x="43" y="564"/>
      <point x="43" y="350" type="curve" smooth="yes"/>
      <point x="43" y="136"/>
      <point x="190" y="-12"/>
      <point x="379" y="-12" type="curve" smooth="yes"/>
      <point x="501.0" y="-12.0"/>
      <point x="574" y="50"/>
      <point x="629" y="144" type="curve"/>
      <point x="611" y="144" type="line"/>
      <point x="611" y="0" type="line"/>
      <point x="692" y="0" type="line"/>
      <point x="692" y="367" type="line"/>
      <point x="428" y="367" type="line"/>
      <point x="428" y="290" type="line"/>
      <point x="661" y="290" type="line"/>
      <point x="622" y="311" type="line"/>
      <point x="622" y="290" type="line" smooth="yes"/>
      <point x="622" y="159"/>
      <point x="514" y="71"/>
      <point x="388" y="71" type="curve" smooth="yes"/>
      <point x="244.0" y="71"/>
      <point x="140" y="185"/>
      <point x="140" y="350" type="curve" smooth="yes"/>
      <point x="140" y="515"/>
      <point x="244" y="627"/>
      <point x="385" y="627" type="curve" smooth="yes"/>
      <point x="498.0" y="627.0"/>
      <point x="576" y="558"/>
      <point x="599" y="470" type="curve"/>
      <point x="687" y="498" type="line"/>
      <point x="653" y="620"/>
      <point x="533" y="712"/>
    </contour>
  </outline>
</glyph>
<glyph name="I" format="2">
  <advance width="280"/>
  <unicode hex="0049"/>
  <outline>
    <contour>
      <point x="93" y="700" type="line"/>
      <point x="93" y="0" type="line"/>
      <point x="188" y="0" type="line"/>
      <point x="188" y="700" type="line"/>
    </contour>
    <contour>
      <point x="93" y="614" type="line"/>
      <point x="188" y="614" type="line"/>
      <point x="188" y="700" type="line"/>
      <point x="93" y="700" type="line"/>
    </contour>
    <contour>
      <point x="93" y="0" type="line"/>
      <point x="188" y="0" type="line"/>
      <point x="188" y="86" type="line"/>
      <point x="93" y="86" type="line"/>
    </contour>
  </outline>
</glyph>
<glyph name="J" format="2">
  <advance width="589"/>
  <unicode hex="004A"/>
  <outline>
    <contour>
      <point x="275" y="73" type="curve" smooth="yes"/>
      <point x="193" y="73"/>
      <point x="130" y="117"/>
      <point x="128" y="227" type="curve"/>
      <point x="28" y="237" type="line"/>
      <point x="29" y="79"/>
      <point x="130" y="-12"/>
      <point x="276" y="-12" type="curve" smooth="yes"/>
      <point x="423" y="-12"/>
      <point x="509.0" y="79.0"/>
      <point x="509" y="222" type="curve" smooth="yes"/>
      <point x="509" y="700" type="line"/>
      <point x="415" y="700" type="line"/>
      <point x="415" y="226" type="line" smooth="yes"/>
      <point x="415.0" y="132.0"/>
      <point x="372" y="73"/>
    </contour>
  </outline>
</glyph>
<glyph name="K" format="2">
  <advance width="680"/>
  <unicode hex="004B"/>
  <outline>
    <contour>
      <point x="140" y="293" type="line"/>
      <point x="140" y="179" type="line"/>
      <point x="287" y="336" type="line"/>
      <point x="312" y="360" type="line"/>
      <point x="631" y="700" type="line"/>
      <point x="514" y="700" type="line"/>
    </contour>
    <contour>
      <point x="85" y="700" type="line"/>
      <point x="85" y="0" type="line"/>
      <point x="180" y="0" type="line"/>
      <point x="180" y="700" type="line"/>
    </contour>
    <contour>
      <point x="227" y="355" type="line"/>
      <point x="550" y="0" type="line"/>
      <point x="670" y="0" type="line"/>
      <point x="290" y="416" type="line"/>
    </contour>
  </outline>
</glyph>
<glyph name="L" format="2">
  <advance width="610"/>
  <unicode hex="004C"/>
  <outline>
    <contour>
      <point x="85" y="700" type="line"/>
      <point x="180" y="700" type="line"/>
      <point x="180" y="0" type="line"/>
      <point x="85" y="0" type="line"/>
    </contour>
    <contour>
      <point x="124" y="0" type="line"/>
      <point x="124" y="86" type="line"/>
      <point x="583" y="86" type="line"/>
      <point x="583" y="0" type="line"/>
    </contour>
  </outline>
</glyph>
<glyph name="M" format="2">
  <advance width="880"/>
  <unicode hex="004D"/>
  <outline>
    <contour>
      <point x="167" y="613" type="line"/>
      <point x="421" y="0" type="line"/>
      <point x="458" y="0" type="line"/>
      <point x="711" y="612" type="line"/>
      <point x="702" y="612" type="line"/>
      <point x="702" y="0" type="line"/>
      <point x="795" y="0" type="line"/>
      <point x="795" y="700" type="line"/>
      <point x="660" y="700" type="line"/>
      <point x="419" y="117" type="line"/>
      <point x="461" y="117" type="line"/>
      <point x="222" y="700" type="line"/>
      <point x="85" y="700" type="line"/>
      <point x="85" y="0" type="line"/>
      <point x="177" y="0" type="line"/>
      <point x="177" y="613" type="line"/>
    </contour>
  </outline>
</glyph>
<glyph name="N" format="2">
  <advance width="770"/>
  <unicode hex="004E"/>
  <outline>
    <contour>
      <point x="656" y="40" type="line"/>
      <point x="220" y="700" type="line"/>
      <point x="85" y="700" type="line"/>
      <point x="85" y="0" type="line"/>
      <point x="178" y="0" type="line"/>
      <point x="178" y="657" type="line"/>
      <point x="144" y="657" type="line"/>
      <point x="578" y="-1" type="line"/>
      <point x="685" y="0" type="line"/>
      <point x="685" y="700" type="line"/>
      <point x="592" y="700" type="line"/>
      <point x="592" y="40" type="line"/>
    </contour>
  </outline>
</glyph>
<glyph name="Q" format="2">
  <advance width="770"/>
  <unicode hex="0051"/>
  <outline>
    <contour>
      <point x="593" y="-99" type="line"/>
      <point x="572" y="-103"/>
      <point x="550" y="-103"/>
      <point x="545" y="-103" type="curve" smooth="yes"/>
      <point x="474" y="-103"/>
      <point x="447" y="-75"/>
      <point x="447" y="-25" type="curve" smooth="yes"/>
      <point x="447" y="27" type="line"/>
      <point x="352" y="27" type="line"/>
      <point x="352" y="-30" type="line" smooth="yes"/>
      <point x="352" y="-133"/>
      <point x="421" y="-181"/>
      <point x="522" y="-181" type="curve" smooth="yes"/>
      <point x="542" y="-181"/>
      <point x="565" y="-179"/>
      <point x="585" y="-176" type="curve"/>
    </contour>
    <contour>
      <point x="385" y="712" type="curve" smooth="yes"/>
      <point x="195" y="712"/>
      <point x="43" y="564"/>
      <point x="43" y="350" type="curve" smooth="yes"/>
      <point x="43" y="136"/>
      <point x="195" y="-12"/>
      <point x="385" y="-12" type="curve" smooth="yes"/>
      <point x="575" y="-12"/>
      <point x="727" y="136"/>
      <point x="727" y="350" type="curve" smooth="yes"/>
      <point x="727" y="564"/>
      <point x="575" y="712"/>
    </contour>
    <contour>
      <point x="385" y="73" type="curve" smooth="yes"/>
      <point x="243" y="73"/>
      <point x="140" y="185"/>
      <point x="140" y="350" type="curve" smooth="yes"/>
      <point x="140" y="515"/>
      <point x="243" y="627"/>
      <point x="385" y="627" type="curve" smooth="yes"/>
      <point x="527" y="627"/>
      <point x="630" y="515"/>
      <point x="630" y="350" type="curve" smooth="yes"/>
      <point x="630" y="185"/>
      <point x="527" y="73"/>
    </contour>
  </outline>
</glyph>
<glyph name="R" format="2">
  <advance width="670"/>
  <unicode hex="0052"/>
  <outline>
    <contour>
      <point x="85" y="700" type="line"/>
      <point x="85" y="0" type="line"/>
      <point x="180" y="0" type="line"/>
      <point x="180" y="700" type="line"/>
    </contour>
    <contour>
      <point x="399" y="386" type="curve" smooth="yes"/>
      <point x="132" y="386" type="line"/>
      <point x="132" y="301" type="line"/>
      <point x="396" y="301" type="line" smooth="yes"/>
      <point x="469.0" y="301.0"/>
      <point x="498" y="267"/>
      <point x="505" y="186" type="curve" smooth="yes"/>
      <point x="511" y="111"/>
      <point x="498" y="34"/>
      <point x="531" y="0" type="curve"/>
      <point x="627" y="0" type="line"/>
      <point x="627" y="11" type="line"/>
      <point x="597" y="35"/>
      <point x="607" y="137"/>
      <point x="597" y="217" type="curve" smooth="yes"/>
      <point x="589" y="282"/>
      <point x="551" y="329"/>
      <point x="447" y="343" type="curve"/>
      <point x="447" y="323" type="line"/>
      <point x="570" y="342"/>
      <point x="622" y="411"/>
      <point x="622" y="502" type="curve" smooth="yes"/>
      <point x="622" y="619"/>
      <point x="536.0" y="700.0"/>
      <point x="402" y="700" type="curve" smooth="yes"/>
      <point x="137" y="700" type="line"/>
      <point x="137" y="614" type="line"/>
      <point x="399" y="614" type="line" smooth="yes"/>
      <point x="476.0" y="614.0"/>
      <point x="525" y="578"/>
      <point x="525" y="501" type="curve" smooth="yes"/>
      <point x="525" y="425"/>
      <point x="476" y="386"/>
    </contour>
  </outline>
</glyph>
<glyph name="T" format="2">
  <advance width="660"/>
  <unicode hex="0054"/>
  <outline>
    <contour>
      <point x="282" y="671" type="line"/>
      <point x="377" y="671" type="line"/>
      <point x="377" y="0" type="line"/>
      <point x="282" y="0" type="line"/>
    </contour>
    <contour>
      <point x="25" y="616" type="line"/>
      <point x="25" y="700" type="line"/>
      <point x="634" y="700" type="line"/>
      <point x="634" y="616" type="line"/>
    </contour>
  </outline>
</glyph>
<glyph name="W" format="2">
  <advance width="920"/>
  <unicode hex="0057"/>
  <outline>
    <contour>
      <point x="719" y="0" type="line"/>
      <point x="910" y="700" type="line"/>
      <point x="811" y="700" type="line"/>
      <point x="641" y="36" type="line"/>
      <point x="695" y="36" type="line"/>
      <point x="513" y="700" type="line"/>
      <point x="408" y="700" type="line"/>
      <point x="228" y="36" type="line"/>
      <point x="283" y="36" type="line"/>
      <point x="109" y="700" type="line"/>
      <point x="10" y="700" type="line"/>
      <point x="202" y="0" type="line"/>
      <point x="302" y="0" type="line"/>
      <point x="478" y="647" type="line"/>
      <point x="442" y="647" type="line"/>
      <point x="619" y="0" type="line"/>
    </contour>
  </outline>
</glyph>
<glyph name="Y" format="2">
  <advance width="660"/>
  <unicode hex="0059"/>
  <outline>
    <contour>
      <point x="358" y="372" type="line"/>
      <point x="122" y="700" type="line"/>
      <point x="15" y="700" type="line"/>
      <point x="282" y="324" type="line"/>
      <point x="282" y="0" type="line"/>
      <point x="377" y="0" type="line"/>
      <point x="377" y="324" type="line"/>
      <point x="645" y="700" type="line"/>
      <point x="540" y="700" type="line"/>
      <point x="303" y="372" type="line"/>
    </contour>
  </outline>
</glyph>
<glyph name="Z" format="2">
  <advance width="640"/>
  <unicode hex="005A"/>
  <outline>
    <contour>
      <point x="48" y="0" type="line"/>
      <point x="594" y="0" type="line"/>
      <point x="594" y="86" type="line"/>
      <point x="126" y="86" type="line"/>
      <point x="121" y="12" type="line"/>
      <point x="588" y="635" type="line"/>
      <point x="588" y="700" type="line"/>
      <point x="46" y="700" type="line"/>
      <point x="46" y="614" type="line"/>
      <point x="515" y="614" type="line"/>
      <point x="493" y="660" type="line"/>
      <point x="48" y="66" type="line"/>
    </contour>
  </outline>
</glyph>
<glyph name="e" format="2">
  <advance width="532"/>
  <unicode hex="0065"/>
  <outline>
    <contour>
      <point x="277" y="-12" type="curve" smooth="yes"/>
      <point x="390.0" y="-12.0"/>
      <point x="470" y="49"/>
      <point x="498" y="145" type="curve"/>
      <point x="420" y="167" type="line"/>
      <point x="401" y="102"/>
      <point x="353" y="59"/>
      <point x="277" y="59" type="curve" smooth="yes"/>
      <point x="183.0" y="59"/>
      <point x="125" y="126"/>
      <point x="125" y="249" type="curve" smooth="yes"/>
      <point x="125" y="366"/>
      <point x="184" y="441"/>
      <point x="277" y="441" type="curve" smooth="yes"/>
      <point x="362" y="441"/>
      <point x="414" y="382"/>
      <point x="414" y="252" type="curve"/>
      <point x="436" y="298" type="line"/>
      <point x="85" y="298" type="line"/>
      <point x="85" y="231" type="line"/>
      <point x="498" y="231" type="line"/>
      <point x="498" y="247" type="line" smooth="yes"/>
      <point x="498" y="401"/>
      <point x="414" y="512"/>
      <point x="277" y="512" type="curve" smooth="yes"/>
      <point x="139" y="512"/>
      <point x="35" y="412"/>
      <point x="35" y="249" type="curve" smooth="yes"/>
      <point x="35" y="87"/>
      <point x="140" y="-12"/>
    </contour>
  </outline>
</glyph>
<glyph name="g" format="2">
  <advance width="508"/>
  <unicode hex="0067"/>
  <outline>
    <contour>
      <point x="493" y="459" type="line"/>
      <point x="493" y="543" type="line"/>
      <point x="487" y="545"/>
      <point x="482" y="545"/>
      <point x="477" y="545" type="curve" smooth="yes"/>
      <point x="437" y="545"/>
      <point x="406" y="513"/>
      <point x="390" y="463" type="curve"/>
      <point x="376" y="463" type="line"/>
      <point x="376" y="403" type="line"/>
      <point x="406" y="403" type="line"/>
      <point x="421" y="441"/>
      <point x="439" y="459"/>
      <point x="473" y="459" type="curve" smooth="yes"/>
    </contour>
    <contour>
      <point x="353" y="346" type="curve" smooth="yes"/>
      <point x="353" y="280"/>
      <point x="312" y="239"/>
      <point x="248" y="239" type="curve" smooth="yes"/>
      <point x="184" y="239"/>
      <point x="143" y="280"/>
      <point x="143" y="346" type="curve" smooth="yes"/>
      <point x="143" y="412"/>
      <point x="184" y="453"/>
      <point x="248" y="453" type="curve" smooth="yes"/>
      <point x="312" y="453"/>
      <point x="353" y="412"/>
    </contour>
    <contour>
      <point x="63" y="346" type="curve" smooth="yes"/>
      <point x="63" y="257"/>
      <point x="133" y="181"/>
      <point x="248" y="181" type="curve" smooth="yes"/>
      <point x="363" y="181"/>
      <point x="433" y="257"/>
      <point x="433" y="346" type="curve" smooth="yes"/>
      <point x="433.0" y="435.0"/>
      <point x="363" y="511"/>
      <point x="248" y="511" type="curve" smooth="yes"/>
      <point x="133" y="511"/>
      <point x="63.0" y="435.0"/>
    </contour>
    <contour>
      <point x="126" y="150" type="curve" smooth="yes"/>
      <point x="126.0" y="167.0"/>
      <point x="138.0" y="181.0"/>
      <point x="176" y="181" type="curve" smooth="yes"/>
      <point x="248" y="181" type="line"/>
      <point x="246" y="181"/>
      <point x="138" y="214"/>
      <point x="138" y="215" type="curve"/>
      <point x="138" y="205" type="line"/>
      <point x="91" y="200"/>
      <point x="52" y="173"/>
      <point x="52" y="128" type="curve" smooth="yes"/>
      <point x="52.0" y="82.0"/>
      <point x="95.0" y="32"/>
      <point x="186" y="32" type="curve" smooth="yes"/>
      <point x="313" y="32" type="line" smooth="yes"/>
      <point x="383" y="32"/>
      <point x="422" y="21"/>
      <point x="422" y="-25" type="curve" smooth="yes"/>
      <point x="422" y="-76"/>
      <point x="365" y="-109"/>
      <point x="248" y="-109" type="curve" smooth="yes"/>
      <point x="150" y="-109"/>
      <point x="109" y="-79"/>
      <point x="109" y="-32" type="curve" smooth="yes"/>
      <point x="109" y="5"/>
      <point x="149" y="33"/>
      <point x="207" y="33" type="curve"/>
      <point x="131" y="54" type="line"/>
      <point x="131" y="39" type="line"/>
      <point x="69" y="29"/>
      <point x="31" y="-4"/>
      <point x="31" y="-52" type="curve" smooth="yes"/>
      <point x="31" y="-115.0"/>
      <point x="97" y="-168"/>
      <point x="248" y="-168" type="curve" smooth="yes"/>
      <point x="403" y="-168"/>
      <point x="508" y="-113"/>
      <point x="508" y="-15" type="curve" smooth="yes"/>
      <point x="508.0" y="65.0"/>
      <point x="449.0" y="113.0"/>
      <point x="337" y="113" type="curve" smooth="yes"/>
      <point x="191" y="113" type="line" smooth="yes"/>
      <point x="156" y="113"/>
      <point x="126" y="125"/>
    </contour>
  </outline>
</glyph>
<glyph name="j" format="2">
  <advance width="230"/>
  <unicode hex="006A"/>
  <outline>
    <contour>
      <point x="-23" y="-163" type="line"/>
      <point x="-11" y="-166"/>
      <point x="12" y="-172"/>
      <point x="36" y="-172" type="curve" smooth="yes"/>
      <point x="101" y="-172"/>
      <point x="160" y="-138"/>
      <point x="160" y="-45" type="curve" smooth="yes"/>
      <point x="160" y="493" type="line"/>
      <point x="70" y="493" type="line"/>
      <point x="70" y="-47" type="line" smooth="yes"/>
      <point x="70.0" y="-80.0"/>
      <point x="48" y="-95"/>
      <point x="14" y="-95" type="curve" smooth="yes"/>
      <point x="2" y="-95"/>
      <point x="-11" y="-93"/>
      <point x="-23" y="-89" type="curve"/>
    </contour>
    <contour>
      <point x="70" y="430" type="line"/>
      <point x="119" y="430" type="line"/>
      <point x="119" y="493" type="line"/>
      <point x="70" y="493" type="line"/>
    </contour>
    <contour>
      <point x="66" y="700" type="line"/>
      <point x="66" y="595" type="line"/>
      <point x="164" y="595" type="line"/>
      <point x="164" y="700" type="line"/>
    </contour>
  </outline>
</glyph>
<glyph name="k" format="2">
  <advance width="520"/>
  <unicode hex="006B"/>
  <outline>
    <contour>
      <point x="70" y="0" type="line"/>
      <point x="160" y="0" type="line"/>
      <point x="160" y="700" type="line"/>
      <point x="70" y="700" type="line"/>
    </contour>
    <contour>
      <point x="116" y="241" type="line"/>
      <point x="116" y="147" type="line"/>
      <point x="240" y="263" type="line"/>
      <point x="270" y="281" type="line"/>
      <point x="503" y="500" type="line"/>
      <point x="392" y="500" type="line"/>
    </contour>
    <contour>
      <point x="201" y="271" type="line"/>
      <point x="416" y="0" type="line"/>
      <point x="521" y="0" type="line"/>
      <point x="265" y="322" type="line"/>
    </contour>
  </outline>
</glyph>
<glyph name="l" format="2">
  <advance width="230"/>
  <unicode hex="006C"/>
  <outline>
    <contour>
      <point x="70" y="700" type="line"/>
      <point x="70" y="0" type="line"/>
      <point x="160" y="0" type="line"/>
      <point x="160" y="700" type="line"/>
    </contour>
    <contour>
      <point x="70" y="636" type="line"/>
      <point x="119" y="636" type="line"/>
      <point x="119" y="700" type="line"/>
      <point x="70" y="700" type="line"/>
    </contour>
    <contour>
      <point x="70" y="0" type="line"/>
      <point x="160" y="0" type="line"/>
      <point x="160" y="63" type="line"/>
      <point x="70" y="63" type="line"/>
    </contour>
  </outline>
</glyph>
<glyph name="o" format="2">
  <advance width="554"/>
  <unicode hex="006F"/>
  <outline>
    <contour>
      <point x="277" y="512" type="curve" smooth="yes"/>
      <point x="140" y="512"/>
      <point x="35" y="411"/>
      <point x="35" y="250" type="curve" smooth="yes"/>
      <point x="35" y="89"/>
      <point x="140" y="-12"/>
      <point x="277" y="-12" type="curve" smooth="yes"/>
      <point x="414" y="-12"/>
      <point x="519" y="89"/>
      <point x="519" y="250" type="curve" smooth="yes"/>
      <point x="519" y="411"/>
      <point x="414" y="512"/>
    </contour>
    <contour>
      <point x="277" y="59" type="curve" smooth="yes"/>
      <point x="183" y="59"/>
      <point x="126" y="133"/>
      <point x="126" y="250" type="curve" smooth="yes"/>
      <point x="126" y="367"/>
      <point x="183" y="441"/>
      <point x="277" y="441" type="curve" smooth="yes"/>
      <point x="371" y="441"/>
      <point x="428" y="367"/>
      <point x="428" y="250" type="curve" smooth="yes"/>
      <point x="428" y="133"/>
      <point x="371" y="59"/>
    </contour>
  </outline>
</glyph>
<glyph name="p" format="2">
  <advance width="587"/>
  <unicode hex="0070"/>
  <outline>
    <contour>
      <point x="342" y="512" type="curve" smooth="yes"/>
      <point x="264" y="512"/>
      <point x="190" y="466"/>
      <point x="150" y="379" type="curve"/>
      <point x="170" y="379" type="line"/>
      <point x="170" y="500" type="line"/>
      <point x="80" y="500" type="line"/>
      <point x="80" y="-160" type="line"/>
      <point x="170" y="-160" type="line"/>
      <point x="170" y="119" type="line"/>
      <point x="150" y="119" type="line"/>
      <point x="190" y="33"/>
      <point x="264" y="-12"/>
      <point x="342" y="-12" type="curve" smooth="yes"/>
      <point x="454" y="-12"/>
      <point x="552" y="78"/>
      <point x="552" y="249" type="curve" smooth="yes"/>
      <point x="552" y="419"/>
      <point x="454" y="512"/>
    </contour>
    <contour>
      <point x="312" y="59" type="curve" smooth="yes"/>
      <point x="218" y="59"/>
      <point x="164" y="133"/>
      <point x="164" y="250" type="curve" smooth="yes"/>
      <point x="164" y="367"/>
      <point x="218" y="441"/>
      <point x="312" y="441" type="curve" smooth="yes"/>
      <point x="406" y="441"/>
      <point x="460" y="367"/>
      <point x="460" y="250" type="curve" smooth="yes"/>
      <point x="460" y="133"/>
      <point x="406" y="59"/>
    </contour>
  </outline>
</glyph>
<glyph name="q" format="2">
  <advance width="577"/>
  <unicode hex="0071"/>
  <outline>
    <contour>
      <point x="245" y="512" type="curve" smooth="yes"/>
      <point x="133" y="512"/>
      <point x="35" y="419"/>
      <point x="35" y="249" type="curve" smooth="yes"/>
      <point x="35" y="78"/>
      <point x="133" y="-12"/>
      <point x="245" y="-12" type="curve" smooth="yes"/>
      <point x="323" y="-12"/>
      <point x="397" y="33"/>
      <point x="437" y="119" type="curve"/>
      <point x="417" y="119" type="line"/>
      <point x="417" y="-160" type="line"/>
      <point x="507" y="-160" type="line"/>
      <point x="507" y="500" type="line"/>
      <point x="417" y="500" type="line"/>
      <point x="417" y="379" type="line"/>
      <point x="437" y="379" type="line"/>
      <point x="397" y="466"/>
      <point x="323" y="512"/>
    </contour>
    <contour>
      <point x="275" y="59" type="curve" smooth="yes"/>
      <point x="181" y="59"/>
      <point x="127" y="133"/>
      <point x="127" y="250" type="curve" smooth="yes"/>
      <point x="127" y="367"/>
      <point x="181" y="441"/>
      <point x="275" y="441" type="curve" smooth="yes"/>
      <point x="369" y="441"/>
      <point x="423" y="367"/>
      <point x="423" y="250" type="curve" smooth="yes"/>
      <point x="423" y="133"/>
      <point x="369" y="59"/>
    </contour>
  </outline>
</glyph>
<glyph name="u" format="2">
  <advance width="547"/>
  <unicode hex="0075"/>
  <outline>
    <contour>
      <point x="477" y="0" type="line"/>
      <point x="477" y="500" type="line"/>
      <point x="387" y="500" type="line"/>
      <point x="387" y="185" type="line" smooth="yes"/>
      <point x="387" y="109"/>
      <point x="336" y="60"/>
      <point x="265" y="60" type="curve" smooth="yes"/>
      <point x="195" y="60"/>
      <point x="158.0" y="101.0"/>
      <point x="158" y="167" type="curve" smooth="yes"/>
      <point x="158" y="500" type="line"/>
      <point x="68" y="500" type="line"/>
      <point x="68" y="151" type="line" smooth="yes"/>
      <point x="68.0" y="56.0"/>
      <point x="134" y="-11"/>
      <point x="228" y="-11" type="curve" smooth="yes"/>
      <point x="299" y="-11"/>
      <point x="358" y="32"/>
      <point x="401" y="98" type="curve"/>
      <point x="387" y="98" type="line"/>
      <point x="387" y="0" type="line"/>
    </contour>
  </outline>
</glyph>
<glyph name="v" format="2">
  <advance width="526"/>
  <unicode hex="0076"/>
  <outline>
    <contour>
      <point x="215" y="0" type="line"/>
      <point x="313" y="0" type="line"/>
      <point x="516" y="500" type="line"/>
      <point x="421" y="500" type="line"/>
      <point x="244" y="51" type="line"/>
      <point x="285" y="51" type="line"/>
      <point x="105" y="500" type="line"/>
      <point x="10" y="500" type="line"/>
    </contour>
  </outline>
</glyph>
<glyph name="x" format="2">
  <advance width="505"/>
  <unicode hex="0078"/>
  <outline>
    <contour>
      <point x="23" y="500" type="line"/>
      <point x="215" y="228" type="line"/>
      <point x="228" y="228" type="line"/>
      <point x="390" y="0" type="line"/>
      <point x="493" y="0" type="line"/>
      <point x="293" y="276" type="line"/>
      <point x="277" y="281" type="line"/>
      <point x="126" y="500" type="line"/>
    </contour>
    <contour>
      <point x="477" y="500" type="line"/>
      <point x="378" y="500" type="line"/>
      <point x="231" y="281" type="line"/>
      <point x="213" y="278" type="line"/>
      <point x="12" y="0" type="line"/>
      <point x="113" y="0" type="line"/>
      <point x="276" y="229" type="line"/>
      <point x="286" y="225" type="line"/>
    </contour>
  </outline>
</glyph>
<glyph name="endash" format="2">
  <advance width="700"/>
  <unicode hex="2013"/>
  <outline>
    <contour>
      <point x="57" y="260" type="line"/>
      <point x="643" y="260" type="line"/>
      <point x="643" y="332" type="line"/>
      <point x="57" y="332" type="line"/>
    </contour>
  </outline>
</glyph>
<glyph name="g.alt1" format="2">
  <advance width="566"/>
  <outline>
    <contour>
      <point x="271" y="99" type="curve" smooth="yes"/>
      <point x="181" y="99"/>
      <point x="130" y="175"/>
      <point x="130" y="270" type="curve" smooth="yes"/>
      <point x="130" y="365"/>
      <point x="181" y="441"/>
      <point x="271" y="441" type="curve" smooth="yes"/>
      <point x="361" y="441"/>
      <point x="412" y="365"/>
      <point x="412" y="270" type="curve" smooth="yes"/>
      <point x="412" y="175"/>
      <point x="361" y="99"/>
    </contour>
    <contour>
      <point x="496" y="18" type="curve" smooth="yes"/>
      <point x="496" y="500" type="line"/>
      <point x="406" y="500" type="line"/>
      <point x="406" y="379" type="line"/>
      <point x="426" y="379" type="line"/>
      <point x="386" y="466"/>
      <point x="315" y="512"/>
      <point x="241" y="512" type="curve" smooth="yes"/>
      <point x="133" y="512"/>
      <point x="38" y="417"/>
      <point x="38" y="269" type="curve" smooth="yes"/>
      <point x="38" y="120"/>
      <point x="133" y="28"/>
      <point x="241" y="28" type="curve" smooth="yes"/>
      <point x="315" y="28"/>
      <point x="386" y="73"/>
      <point x="426" y="159" type="curve"/>
      <point x="406" y="159" type="line"/>
      <point x="406" y="21" type="line" smooth="yes"/>
      <point x="406.0" y="-64.0"/>
      <point x="348" y="-103"/>
      <point x="271" y="-103" type="curve" smooth="yes"/>
      <point x="197.0" y="-103"/>
      <point x="150" y="-66"/>
      <point x="141" y="-3" type="curve"/>
      <point x="52" y="-19" type="line"/>
      <point x="69" y="-116"/>
      <point x="153" y="-172"/>
      <point x="271" y="-172" type="curve" smooth="yes"/>
      <point x="393.0" y="-172.0"/>
      <point x="496.0" y="-109.0"/>
    </contour>
  </outline>
</glyph>
